<?xml version="1.0" encoding="UTF-8"?><svg id="a" xmlns="http://www.w3.org/2000/svg" viewBox="0 0 283.4646 150.6989"><defs><style>.f,.g{stroke-linecap:round;}.f,.g,.h{fill:none;stroke-miterlimit:10;stroke-width:6px;}.f,.h{stroke:#ee2a7b;}.g{stroke:#fbb040;}.i{fill:#231f20;stroke-width:0px;}</style></defs><polyline id="b" class="f" points="235.6876 107.5201 173.5738 107.5201 150.4008 36.1977 124.9585 114.5012 51.1141 114.5012"/><polyline id="c" class="g" points="37.0596 104.9719 149.7196 104.9719 172.1868 48.1173 208.3009 48.1173"/><g id="d"><path class="i" d="m44.2843,97.8834h-14.9336v-45.877h36.0054v11.2637h-21.0718v34.6133Zm-1.0122-26.2961h19.4897v11.2632h-19.4897v-11.2632Z"/><path class="i" d="m79.3404,98.5162c-2.7427,0-5.2202-.5596-7.4351-1.6768s-3.9551-2.8682-5.2207-5.252c-1.2656-2.3828-1.8979-5.4521-1.8979-9.207v-19.1104h14.3008v16.6426c0,2.4463.4004,4.1553,1.2021,5.125.8008.9707,1.8984,1.4551,3.2905,1.4551.8433,0,1.6343-.2207,2.373-.6641.7378-.4424,1.3389-1.1807,1.8032-2.2148.4639-1.0332.6963-2.3936.6963-4.0811v-16.2627h14.3008v34.6133h-13.605v-9.998l2.7212,2.7207c-1.2241,2.7002-2.9644,4.6934-5.2207,5.9805-2.2568,1.2871-4.6934,1.9297-7.3086,1.9297Z"/><path class="i" d="m101.8043,97.8834v-8.2266l18.4141-20.502,2.3413,4.5562h-20.249v-10.4409h31.8291v8.2261l-18.4141,20.5024-2.3413-4.5566h21.4512v10.4414h-33.0312Z"/><path class="i" d="m131.8614,97.8834v-8.2266l18.4136-20.502,2.3418,4.5562h-20.249v-10.4409h31.8291v8.2261l-18.4141,20.5024-2.3413-4.5566h21.4507v10.4414h-33.0308Z"/><path class="i" d="m176.6617,99.4654l-15.0605-36.1953h14.6816l10.377,26.957-9.998,9.2383Zm-3.3535,11.3271c-1.8984,0-3.8281-.2852-5.79-.8545s-3.5342-1.3193-4.7148-2.2461l4.7461-9.8086c.7168.5479,1.5283.9902,2.4365,1.3291.9062.3369,1.7812.5059,2.627.5059,1.2656,0,2.2344-.2637,2.9102-.791.6738-.5273,1.2227-1.3174,1.6445-2.373l1.457-3.6699,1.0117-1.3926,11.0742-28.2217h13.541l-14.2383,35.3096c-1.2656,3.1641-2.7305,5.6318-4.3965,7.4033-1.668,1.7715-3.5234,3.0156-5.5703,3.7334-2.0449.7168-4.293,1.0762-6.7383,1.0762Z"/><path class="i" d="m234.2447,98.8961c-3.5439,0-6.8242-.5596-9.8398-1.6768-3.0166-1.1172-5.6318-2.7109-7.8467-4.7783-2.2148-2.0664-3.9336-4.5127-5.1572-7.3398-1.2236-2.8262-1.835-5.9482-1.835-9.3652s.6113-6.5386,1.835-9.3652c1.2236-2.8257,2.9424-5.2729,5.1572-7.3403,2.2148-2.0664,4.8301-3.6592,7.8467-4.7778,3.0156-1.1172,6.2959-1.6768,9.8398-1.6768,4.3447,0,8.1943.7593,11.5488,2.2783,3.3535,1.5186,6.127,3.7124,8.3203,6.5806l-9.4277,8.4165c-1.3086-1.6455-2.7529-2.9209-4.335-3.8286-1.582-.9067-3.3643-1.3604-5.3467-1.3604-1.5615,0-2.9746.2529-4.2402.7593s-2.3516,1.2446-3.2588,2.2148c-.9072.9707-1.6133,2.1416-2.1201,3.5117-.5059,1.3716-.7588,2.9009-.7588,4.5879s.2529,3.2168.7588,4.5879c.5068,1.3711,1.2129,2.542,2.1201,3.5117.9072.9707,1.9932,1.709,3.2588,2.2148s2.6787.7588,4.2402.7588c1.9824,0,3.7646-.4521,5.3467-1.3604,1.582-.9062,3.0264-2.1826,4.335-3.8281l9.4277,8.416c-2.1934,2.8271-4.9668,5.0098-8.3203,6.5498-3.3545,1.5391-7.2041,2.3096-11.5488,2.3096Z"/><polygon class="i" points="164.1969 71.4962 165.1058 70.5872 165.1058 64.4408 159.8849 69.6617 164.1969 71.4962"/></g><line id="e" class="h" x1="124.9585" y1="114.5012" x2="150.4008" y2="36.1977"/></svg>